<svg width="151" height="151" viewBox="0 0 151 151" fill="none" xmlns="http://www.w3.org/2000/svg">
<rect x="0.118835" y="0.790283" width="150" height="150" fill="url(#paint0_radial_11_6)"/>
<path d="M26.6497 105.995C27.4568 102.95 30.1982 98.4739 34.3458 95.753C38.4933 93.0321 50.8798 91.0349 51.9436 91.0716M51.9436 91.0716C50.2928 93.2727 45.8211 99.5456 44.5885 105.004C43.3559 110.463 42.5342 114.542 42.2774 115.9M51.9436 91.0716C51.9436 91.0716 54.9255 84.7406 66.3213 78.7275C68.88 77.3773 70.8819 76.4248 72.506 75.7013M91.4446 99.5869C94.2294 97.7787 98.1942 95.6104 101.207 92.6612M72.506 75.7013C78.1152 73.2026 83.5492 69.292 87.5233 65.3178C90.2772 62.5639 92.2832 60.4195 96.4292 54.8602M72.506 75.7013C68.4403 81.15 65.9179 95.1344 75.6755 104.892M101.207 92.6612C103.687 90.233 105.522 87.2755 105.522 83.5537C105.522 76.9359 98.4233 77.0563 98.664 68.784C98.8848 61.1934 99.8071 59.4288 101.04 53.9541C102.209 48.7658 101.678 40.8294 101.678 35.6809C101.678 44.7458 100.575 49.3009 96.4292 54.8602M101.207 92.6612C105.046 95.7876 104.389 108.496 97.6574 113.843M96.4292 54.8602C91.0291 62.1012 74.7645 69.1266 60.2535 59.8474" stroke="#F5F5F4" stroke-width="7" stroke-linecap="round" stroke-linejoin="round"/>
<defs>
<radialGradient id="paint0_radial_11_6" cx="0" cy="0" r="1" gradientUnits="userSpaceOnUse" gradientTransform="translate(75.1188 75.7903) rotate(90) scale(75)">
<stop stop-color="#619520"/>
<stop offset="1" stop-color="#4F7C16"/>
</radialGradient>
</defs>
</svg>
