<svg width="87" height="88" viewBox="0 0 87 88" fill="none" xmlns="http://www.w3.org/2000/svg">
<path d="M4.48926 73.8229C5.2963 70.7781 8.03775 66.302 12.1853 63.5811C16.3329 60.8602 28.7193 58.863 29.7832 58.8997M29.7832 58.8997C28.1324 61.1008 23.6607 67.3738 22.4281 72.8324C21.1955 78.2911 20.3737 82.3705 20.1169 83.7278M29.7832 58.8997C29.7832 58.8997 32.7651 52.5687 44.1608 46.5556C46.7195 45.2055 48.7214 44.2529 50.3455 43.5294M69.2841 67.415C72.069 65.6068 76.0337 63.4385 79.0465 60.4893M50.3455 43.5294C55.9548 41.0308 61.3888 37.1201 65.3629 33.146C68.1168 30.392 70.1228 28.2476 74.2687 22.6883M50.3455 43.5294C46.2799 48.9781 43.7575 62.9625 53.515 72.7201M79.0465 60.4893C81.5269 58.0611 83.362 55.1036 83.362 51.3819C83.362 44.7641 76.2629 44.8844 76.5035 36.6121C76.7244 29.0215 77.6466 27.2569 78.8799 21.7822C80.0487 16.5939 79.5172 8.65756 79.5172 3.50903C79.5172 12.5739 78.4146 17.129 74.2687 22.6883M79.0465 60.4893C82.8858 63.6157 82.2281 76.3246 75.4969 81.6708M74.2687 22.6883C68.8686 29.9293 52.604 36.9547 38.093 27.6755" stroke="url(#paint0_radial_11_11)" stroke-width="7" stroke-linecap="round" stroke-linejoin="round"/>
<defs>
<radialGradient id="paint0_radial_11_11" cx="0" cy="0" r="1" gradientUnits="userSpaceOnUse" gradientTransform="translate(43.9256 43.6184) rotate(90) scale(40.1094 39.4364)">
<stop stop-color="#619520"/>
<stop offset="1" stop-color="#4F7C16"/>
</radialGradient>
</defs>
</svg>
