<svg width="601" height="211" viewBox="0 0 601 211" fill="none" xmlns="http://www.w3.org/2000/svg">
<path d="M210.999 61.0648V135.065H196.999V61.0648H210.999ZM231.931 73.0648C229.465 73.0648 227.398 72.2982 225.731 70.7648C224.131 69.1648 223.331 67.1981 223.331 64.8648C223.331 62.5315 224.131 60.5981 225.731 59.0648C227.398 57.4648 229.465 56.6648 231.931 56.6648C234.398 56.6648 236.431 57.4648 238.031 59.0648C239.698 60.5981 240.531 62.5315 240.531 64.8648C240.531 67.1981 239.698 69.1648 238.031 70.7648C236.431 72.2982 234.398 73.0648 231.931 73.0648ZM238.831 79.6648V135.065H224.831V79.6648H238.831ZM273.863 135.965C269.33 135.965 265.263 135.165 261.663 133.565C258.063 131.898 255.197 129.665 253.063 126.865C250.997 124.065 249.863 120.965 249.663 117.565H263.763C264.03 119.698 265.063 121.465 266.863 122.865C268.73 124.265 271.03 124.965 273.763 124.965C276.43 124.965 278.497 124.431 279.963 123.365C281.497 122.298 282.263 120.931 282.263 119.265C282.263 117.465 281.33 116.131 279.463 115.265C277.663 114.331 274.763 113.331 270.763 112.265C266.63 111.265 263.23 110.231 260.563 109.165C257.963 108.098 255.697 106.465 253.763 104.265C251.897 102.065 250.963 99.0982 250.963 95.3648C250.963 92.2982 251.83 89.4982 253.563 86.9648C255.363 84.4315 257.897 82.4315 261.163 80.9648C264.497 79.4982 268.397 78.7648 272.863 78.7648C279.463 78.7648 284.73 80.4315 288.663 83.7648C292.597 87.0315 294.763 91.4648 295.163 97.0648H281.763C281.563 94.8648 280.63 93.1315 278.963 91.8648C277.363 90.5315 275.197 89.8648 272.463 89.8648C269.93 89.8648 267.963 90.3315 266.563 91.2648C265.23 92.1982 264.563 93.4982 264.563 95.1648C264.563 97.0315 265.497 98.4648 267.363 99.4648C269.23 100.398 272.13 101.365 276.063 102.365C280.063 103.365 283.363 104.398 285.963 105.465C288.563 106.531 290.797 108.198 292.663 110.465C294.597 112.665 295.597 115.598 295.663 119.265C295.663 122.465 294.763 125.331 292.963 127.865C291.23 130.398 288.697 132.398 285.363 133.865C282.097 135.265 278.263 135.965 273.863 135.965ZM323.455 91.1648V117.965C323.455 119.831 323.889 121.198 324.755 122.065C325.689 122.865 327.222 123.265 329.355 123.265H335.855V135.065H327.055C315.255 135.065 309.355 129.331 309.355 117.865V91.1648H302.755V79.6648H309.355V65.9648H323.455V79.6648H335.855V91.1648H323.455ZM359.925 88.2648C361.725 85.3315 364.058 83.0315 366.925 81.3648C369.858 79.6982 373.192 78.8648 376.925 78.8648V93.5648H373.225C368.825 93.5648 365.492 94.5982 363.225 96.6648C361.025 98.7315 359.925 102.331 359.925 107.465V135.065H345.925V79.6648H359.925V88.2648ZM410.955 135.965C405.621 135.965 400.821 134.798 396.555 132.465C392.288 130.065 388.921 126.698 386.455 122.365C384.055 118.031 382.855 113.031 382.855 107.365C382.855 101.698 384.088 96.6982 386.555 92.3648C389.088 88.0315 392.521 84.6982 396.855 82.3648C401.188 79.9648 406.021 78.7648 411.355 78.7648C416.688 78.7648 421.521 79.9648 425.855 82.3648C430.188 84.6982 433.588 88.0315 436.055 92.3648C438.588 96.6982 439.855 101.698 439.855 107.365C439.855 113.031 438.555 118.031 435.955 122.365C433.421 126.698 429.955 130.065 425.555 132.465C421.221 134.798 416.355 135.965 410.955 135.965ZM410.955 123.765C413.488 123.765 415.855 123.165 418.055 121.965C420.321 120.698 422.121 118.831 423.455 116.365C424.788 113.898 425.455 110.898 425.455 107.365C425.455 102.098 424.055 98.0648 421.255 95.2648C418.521 92.3982 415.155 90.9648 411.155 90.9648C407.155 90.9648 403.788 92.3982 401.055 95.2648C398.388 98.0648 397.055 102.098 397.055 107.365C397.055 112.631 398.355 116.698 400.955 119.565C403.621 122.365 406.955 123.765 410.955 123.765ZM474.724 135.965C469.391 135.965 464.591 134.798 460.324 132.465C456.058 130.065 452.691 126.698 450.224 122.365C447.824 118.031 446.624 113.031 446.624 107.365C446.624 101.698 447.858 96.6982 450.324 92.3648C452.858 88.0315 456.291 84.6982 460.624 82.3648C464.958 79.9648 469.791 78.7648 475.124 78.7648C480.458 78.7648 485.291 79.9648 489.624 82.3648C493.958 84.6982 497.358 88.0315 499.824 92.3648C502.358 96.6982 503.624 101.698 503.624 107.365C503.624 113.031 502.324 118.031 499.724 122.365C497.191 126.698 493.724 130.065 489.324 132.465C484.991 134.798 480.124 135.965 474.724 135.965ZM474.724 123.765C477.258 123.765 479.624 123.165 481.824 121.965C484.091 120.698 485.891 118.831 487.224 116.365C488.558 113.898 489.224 110.898 489.224 107.365C489.224 102.098 487.824 98.0648 485.024 95.2648C482.291 92.3982 478.924 90.9648 474.924 90.9648C470.924 90.9648 467.558 92.3982 464.824 95.2648C462.158 98.0648 460.824 102.098 460.824 107.365C460.824 112.631 462.124 116.698 464.724 119.565C467.391 122.365 470.724 123.765 474.724 123.765ZM530.194 91.1648V117.965C530.194 119.831 530.627 121.198 531.494 122.065C532.427 122.865 533.96 123.265 536.094 123.265H542.594V135.065H533.794C521.994 135.065 516.094 129.331 516.094 117.865V91.1648H509.494V79.6648H516.094V65.9648H530.194V79.6648H542.594V91.1648H530.194ZM573.863 135.965C569.33 135.965 565.263 135.165 561.663 133.565C558.063 131.898 555.197 129.665 553.063 126.865C550.997 124.065 549.863 120.965 549.663 117.565H563.763C564.03 119.698 565.063 121.465 566.863 122.865C568.73 124.265 571.03 124.965 573.763 124.965C576.43 124.965 578.497 124.431 579.963 123.365C581.497 122.298 582.263 120.931 582.263 119.265C582.263 117.465 581.33 116.131 579.463 115.265C577.663 114.331 574.763 113.331 570.763 112.265C566.63 111.265 563.23 110.231 560.563 109.165C557.963 108.098 555.697 106.465 553.763 104.265C551.897 102.065 550.963 99.0982 550.963 95.3648C550.963 92.2982 551.83 89.4982 553.563 86.9648C555.363 84.4315 557.897 82.4315 561.163 80.9648C564.497 79.4982 568.397 78.7648 572.863 78.7648C579.463 78.7648 584.73 80.4315 588.663 83.7648C592.597 87.0315 594.763 91.4648 595.163 97.0648H581.763C581.563 94.8648 580.63 93.1315 578.963 91.8648C577.363 90.5315 575.197 89.8648 572.463 89.8648C569.93 89.8648 567.963 90.3315 566.563 91.2648C565.23 92.1982 564.563 93.4982 564.563 95.1648C564.563 97.0315 565.497 98.4648 567.363 99.4648C569.23 100.398 572.13 101.365 576.063 102.365C580.063 103.365 583.363 104.398 585.963 105.465C588.563 106.531 590.797 108.198 592.663 110.465C594.597 112.665 595.597 115.598 595.663 119.265C595.663 122.465 594.763 125.331 592.963 127.865C591.23 130.398 588.697 132.398 585.363 133.865C582.097 135.265 578.263 135.965 573.863 135.965Z" fill="#181F0F" fill-opacity="0.75"/>
<g filter="url(#filter0_d_11_10)">
<rect x="40.9241" y="30.4255" width="130" height="130" rx="40" fill="url(#paint0_radial_11_10)"/>
</g>
<path d="M57.7561 120.379C58.5631 117.334 61.3046 112.858 65.4522 110.137C69.5997 107.416 81.9862 105.419 83.05 105.456M83.05 105.456C81.3992 107.657 76.9275 113.93 75.6949 119.388C74.4623 124.847 73.6406 128.926 73.3838 130.284M83.05 105.456C83.05 105.456 86.0319 99.1245 97.4276 93.1114C99.9864 91.7613 101.988 90.8087 103.612 90.0852M122.551 113.971C125.336 112.163 129.301 109.994 132.313 107.045M103.612 90.0852C109.222 87.5865 114.656 83.6759 118.63 79.7017C121.384 76.9478 123.39 74.8034 127.536 69.2441M103.612 90.0852C99.5467 95.5339 97.0243 109.518 106.782 119.276M132.313 107.045C134.794 104.617 136.629 101.659 136.629 97.9377C136.629 91.3198 129.53 91.4402 129.77 83.1679C129.991 75.5773 130.913 73.8127 132.147 68.338C133.316 63.1497 132.784 55.2133 132.784 50.0648C132.784 59.1297 131.681 63.6848 127.536 69.2441M132.313 107.045C136.153 110.172 135.495 122.88 128.764 128.227M127.536 69.2441C122.135 76.4851 105.871 83.5105 91.3599 74.2313" stroke="#F5F5F4" stroke-width="7" stroke-linecap="round" stroke-linejoin="round"/>
<defs>
<filter id="filter0_d_11_10" x="0.924072" y="0.425537" width="210" height="210" filterUnits="userSpaceOnUse" color-interpolation-filters="sRGB">
<feFlood flood-opacity="0" result="BackgroundImageFix"/>
<feColorMatrix in="SourceAlpha" type="matrix" values="0 0 0 0 0 0 0 0 0 0 0 0 0 0 0 0 0 0 127 0" result="hardAlpha"/>
<feOffset dy="10"/>
<feGaussianBlur stdDeviation="20"/>
<feComposite in2="hardAlpha" operator="out"/>
<feColorMatrix type="matrix" values="0 0 0 0 0.374086 0 0 0 0 0.570833 0 0 0 0 0.123681 0 0 0 0.15 0"/>
<feBlend mode="normal" in2="BackgroundImageFix" result="effect1_dropShadow_11_10"/>
<feBlend mode="normal" in="SourceGraphic" in2="effect1_dropShadow_11_10" result="shape"/>
</filter>
<radialGradient id="paint0_radial_11_10" cx="0" cy="0" r="1" gradientUnits="userSpaceOnUse" gradientTransform="translate(105.924 95.4255) rotate(90) scale(65)">
<stop stop-color="#619520"/>
<stop offset="1" stop-color="#4F7C16"/>
</radialGradient>
</defs>
</svg>
